# xmcd CD database file
#
# Track frame offsets:
#	150
#	23088
#	42890
#	60209
#	80984
#	102980
#	118800
#	140729
#	157963
#	178327
#	196955
#	215696
#
# Disc length: 3127 seconds
#
# Revision: 0
# Processed by: cddbd v1.5.2PL0 Copyright (c) Steve Scherf et al.
# Submitted via: CDex 1.70beta2
#
DISCID=ac0c350c
DTITLE=Various Artist - Salsa Anacaona
DYEAR=1900
DGENRE=Salsa
TTITLE0=Lloraras - los Nemus del Pacifico
TTITLE1=La Tormenta - The Latin Brothers
TTITLE2=Mala Mujer - La Sonora Guantanamera
TTITLE3=Salsa con cache - Luis Felipe Gonzales
TTITLE4=El Preso - Fruko y sus tesos
TTITLE5=Son para un cubano - Celina y Reutilio jr.
TTITLE6=Reina de Reinas - Luis Alberto
TTITLE7=Vitamina - La Sonora Carruseles
TTITLE8=Pa´l Bailador - Joe Arroyo y la verdad
TTITLE9=Ave Maria Lola - La Sonora Carruseles
TTITLE10=Mi Vecina - Gabion Pampini
TTITLE11=La Guayaba - The Latin Brothers
EXTD=
EXTT0=
EXTT1=
EXTT2=
EXTT3=
EXTT4=
EXTT5=
EXTT6=
EXTT7=
EXTT8=
EXTT9=
EXTT10=
EXTT11=
PLAYORDER=
